<svg width="113" height="25" viewBox="0 0 113 25" fill="none" xmlns="http://www.w3.org/2000/svg">
<path d="M1.39062 20V4H4.77344V10.6016H11.6406V4H15.0156V20H11.6406V13.3906H4.77344V20H1.39062ZM19.7969 24.5C19.375 24.5 18.9792 24.4661 18.6094 24.3984C18.2448 24.3359 17.9427 24.2552 17.7031 24.1562L18.4531 21.6719C18.8438 21.7917 19.1953 21.8568 19.5078 21.8672C19.8255 21.8776 20.099 21.8047 20.3281 21.6484C20.5625 21.4922 20.7526 21.2266 20.8984 20.8516L21.0938 20.3438L16.7891 8H20.2891L22.7734 16.8125H22.8984L25.4063 8H28.9297L24.2656 21.2969C24.0417 21.9427 23.737 22.5052 23.3516 22.9844C22.9714 23.4688 22.4896 23.8411 21.9063 24.1016C21.3229 24.3672 20.6198 24.5 19.7969 24.5ZM30.6328 24.5V8H33.9141V10.0156H34.0625C34.2083 9.69271 34.4193 9.36458 34.6953 9.03125C34.9766 8.69271 35.3411 8.41146 35.7891 8.1875C36.2422 7.95833 36.8047 7.84375 37.4766 7.84375C38.3516 7.84375 39.1589 8.07292 39.8984 8.53125C40.638 8.98437 41.2292 9.66927 41.6719 10.5859C42.1146 11.4974 42.3359 12.6406 42.3359 14.0156C42.3359 15.3542 42.1198 16.4844 41.6875 17.4062C41.2604 18.3229 40.6771 19.0182 39.9375 19.4922C39.2031 19.9609 38.3802 20.1953 37.4688 20.1953C36.8229 20.1953 36.2734 20.0885 35.8203 19.875C35.3724 19.6615 35.0052 19.3932 34.7188 19.0703C34.4323 18.7422 34.2135 18.4115 34.0625 18.0781H33.9609V24.5H30.6328ZM33.8906 14C33.8906 14.7135 33.9896 15.3359 34.1875 15.8672C34.3854 16.3984 34.6719 16.8125 35.0469 17.1094C35.4219 17.401 35.8776 17.5469 36.4141 17.5469C36.9557 17.5469 37.4141 17.3984 37.7891 17.1016C38.1641 16.7995 38.4479 16.3828 38.6406 15.8516C38.8385 15.3151 38.9375 14.6979 38.9375 14C38.9375 13.3073 38.8411 12.6979 38.6484 12.1719C38.4557 11.6458 38.1719 11.2344 37.7969 10.9375C37.4219 10.6406 36.9609 10.4922 36.4141 10.4922C35.8724 10.4922 35.4141 10.6354 35.0391 10.9219C34.6693 11.2083 34.3854 11.6146 34.1875 12.1406C33.9896 12.6667 33.8906 13.2865 33.8906 14ZM47.8828 13.0625V20H44.5547V8H47.7266V10.1172H47.8672C48.1328 9.41927 48.5781 8.86719 49.2031 8.46094C49.8281 8.04948 50.5859 7.84375 51.4766 7.84375C52.3099 7.84375 53.0365 8.02604 53.6563 8.39062C54.276 8.75521 54.7578 9.27604 55.1016 9.95312C55.4453 10.625 55.6172 11.4271 55.6172 12.3594V20H52.2891V12.9531C52.2943 12.2187 52.1068 11.6458 51.7266 11.2344C51.3464 10.8177 50.8229 10.6094 50.1563 10.6094C49.7083 10.6094 49.3125 10.7057 48.9688 10.8984C48.6302 11.0911 48.3646 11.3724 48.1719 11.7422C47.9844 12.1068 47.888 12.5469 47.8828 13.0625ZM63.6621 20.2344C62.4486 20.2344 61.3991 19.9766 60.5137 19.4609C59.6335 18.9401 58.9538 18.2161 58.4746 17.2891C57.9954 16.3568 57.7559 15.276 57.7559 14.0469C57.7559 12.8073 57.9954 11.724 58.4746 10.7969C58.9538 9.86458 59.6335 9.14062 60.5137 8.625C61.3991 8.10417 62.4486 7.84375 63.6621 7.84375C64.8757 7.84375 65.9225 8.10417 66.8027 8.625C67.6882 9.14062 68.3704 9.86458 68.8496 10.7969C69.3288 11.724 69.5684 12.8073 69.5684 14.0469C69.5684 15.276 69.3288 16.3568 68.8496 17.2891C68.3704 18.2161 67.6882 18.9401 66.8027 19.4609C65.9225 19.9766 64.8757 20.2344 63.6621 20.2344ZM63.6777 17.6562C64.2298 17.6562 64.6908 17.5 65.0605 17.1875C65.4303 16.8698 65.709 16.4375 65.8965 15.8906C66.0892 15.3437 66.1855 14.7214 66.1855 14.0234C66.1855 13.3255 66.0892 12.7031 65.8965 12.1562C65.709 11.6094 65.4303 11.1771 65.0605 10.8594C64.6908 10.5417 64.2298 10.3828 63.6777 10.3828C63.1204 10.3828 62.6517 10.5417 62.2715 10.8594C61.8965 11.1771 61.6126 11.6094 61.4199 12.1562C61.2324 12.7031 61.1387 13.3255 61.1387 14.0234C61.1387 14.7214 61.2324 15.3437 61.4199 15.8906C61.6126 16.4375 61.8965 16.8698 62.2715 17.1875C62.6517 17.5 63.1204 17.6562 63.6777 17.6562ZM81.7168 11.4219L78.6699 11.6094C78.6178 11.349 78.5059 11.1146 78.334 10.9062C78.1621 10.6927 77.9355 10.5234 77.6543 10.3984C77.3783 10.2682 77.0475 10.2031 76.6621 10.2031C76.1465 10.2031 75.7116 10.3125 75.3574 10.5312C75.0033 10.7448 74.8262 11.0312 74.8262 11.3906C74.8262 11.6771 74.9408 11.9193 75.1699 12.1172C75.3991 12.3151 75.7923 12.474 76.3496 12.5937L78.5215 13.0312C79.6882 13.2708 80.5579 13.6562 81.1309 14.1875C81.7038 14.7187 81.9902 15.4167 81.9902 16.2812C81.9902 17.0677 81.7585 17.7578 81.2949 18.3516C80.8366 18.9453 80.2064 19.4089 79.4043 19.7422C78.6074 20.0703 77.6882 20.2344 76.6465 20.2344C75.0579 20.2344 73.7923 19.9036 72.8496 19.2422C71.9121 18.5755 71.3626 17.6693 71.2012 16.5234L74.4746 16.3516C74.5736 16.8359 74.8132 17.2057 75.1934 17.4609C75.5736 17.7109 76.0605 17.8359 76.6543 17.8359C77.2376 17.8359 77.7064 17.724 78.0605 17.5C78.4199 17.2708 78.6022 16.9766 78.6074 16.6172C78.6022 16.3151 78.4746 16.0677 78.2246 15.875C77.9746 15.6771 77.5892 15.526 77.0684 15.4219L74.9902 15.0078C73.8184 14.7734 72.946 14.3672 72.373 13.7891C71.8053 13.2109 71.5215 12.474 71.5215 11.5781C71.5215 10.8073 71.7298 10.1432 72.1465 9.58594C72.5684 9.02865 73.1595 8.59896 73.9199 8.29687C74.6855 7.99479 75.5814 7.84375 76.6074 7.84375C78.123 7.84375 79.3158 8.16406 80.1855 8.80469C81.0605 9.44531 81.571 10.3177 81.7168 11.4219ZM84.0859 20V8H87.4141V20H84.0859ZM85.7578 6.45312C85.263 6.45312 84.8385 6.28906 84.4844 5.96094C84.1354 5.6276 83.9609 5.22917 83.9609 4.76562C83.9609 4.30729 84.1354 3.91406 84.4844 3.58594C84.8385 3.2526 85.263 3.08594 85.7578 3.08594C86.2526 3.08594 86.6745 3.2526 87.0234 3.58594C87.3776 3.91406 87.5547 4.30729 87.5547 4.76562C87.5547 5.22917 87.3776 5.6276 87.0234 5.96094C86.6745 6.28906 86.2526 6.45312 85.7578 6.45312ZM100.064 11.4219L97.0176 11.6094C96.9655 11.349 96.8535 11.1146 96.6816 10.9062C96.5098 10.6927 96.2832 10.5234 96.002 10.3984C95.7259 10.2682 95.3952 10.2031 95.0098 10.2031C94.4941 10.2031 94.0592 10.3125 93.7051 10.5312C93.3509 10.7448 93.1738 11.0312 93.1738 11.3906C93.1738 11.6771 93.2884 11.9193 93.5176 12.1172C93.7467 12.3151 94.14 12.474 94.6973 12.5937L96.8691 13.0312C98.0358 13.2708 98.9056 13.6562 99.4785 14.1875C100.051 14.7187 100.338 15.4167 100.338 16.2812C100.338 17.0677 100.106 17.7578 99.6426 18.3516C99.1842 18.9453 98.554 19.4089 97.752 19.7422C96.9551 20.0703 96.0358 20.2344 94.9941 20.2344C93.4056 20.2344 92.14 19.9036 91.1973 19.2422C90.2598 18.5755 89.7103 17.6693 89.5488 16.5234L92.8223 16.3516C92.9212 16.8359 93.1608 17.2057 93.541 17.4609C93.9212 17.7109 94.4082 17.8359 95.002 17.8359C95.5853 17.8359 96.054 17.724 96.4082 17.5C96.7676 17.2708 96.9499 16.9766 96.9551 16.6172C96.9499 16.3151 96.8223 16.0677 96.5723 15.875C96.3223 15.6771 95.9368 15.526 95.416 15.4219L93.3379 15.0078C92.166 14.7734 91.2936 14.3672 90.7207 13.7891C90.153 13.2109 89.8691 12.474 89.8691 11.5781C89.8691 10.8073 90.0775 10.1432 90.4941 9.58594C90.916 9.02865 91.5072 8.59896 92.2676 8.29687C93.0332 7.99479 93.929 7.84375 94.9551 7.84375C96.4707 7.84375 97.6634 8.16406 98.5332 8.80469C99.4082 9.44531 99.9186 10.3177 100.064 11.4219Z" fill="black"/>
<path d="M102.278 2.68217V1.90909H106.34V2.68217H104.767V7H103.852V2.68217H102.278ZM107.123 1.90909H108.252L109.763 5.59801H109.823L111.334 1.90909H112.463V7H111.578V3.50249H111.531L110.124 6.98509H109.462L108.055 3.49503H108.008V7H107.123V1.90909Z" fill="black"/>
</svg>